<svg width="698" height="358" viewBox="0 0 698 358" fill="none" xmlns="http://www.w3.org/2000/svg">
<path d="M1189 0.5C1517.28 0.5 1814.47 55.6737 2029.56 144.858C2137.11 189.451 2224.11 242.537 2284.21 301.459C2344.32 360.38 2377.5 425.106 2377.5 493C2377.5 560.894 2344.32 625.62 2284.21 684.541C2224.11 743.463 2137.11 796.549 2029.56 841.142C1814.47 930.326 1517.28 985.5 1189 985.5C860.716 985.5 563.534 930.326 348.441 841.142C240.894 796.549 153.893 743.463 93.7871 684.541C33.6828 625.62 0.5 560.894 0.5 493C0.5 425.106 33.6828 360.38 93.7871 301.459C153.893 242.537 240.894 189.451 348.441 144.858C563.534 55.6737 860.716 0.5 1189 0.5Z" fill="url(#paint0_radial_53_113)" stroke="#8CB0DE"/>
<defs>
<radialGradient id="paint0_radial_53_113" cx="0" cy="0" r="1" gradientUnits="userSpaceOnUse" gradientTransform="translate(1189 493) rotate(90) scale(506.613 1221.83)">
<stop offset="0.822011"/>
<stop offset="1" stop-color="#0FFF50"/>
</radialGradient>
</defs>
</svg>
