<svg width="1440" height="2118" viewBox="0 0 1440 2118" fill="none" xmlns="http://www.w3.org/2000/svg">
<g filter="url(#filter0_f_85_103)">
<path d="M-66 2069.82C609.105 1578.69 950.902 1141.04 1439.04 0V410.434C1439.28 413.511 1439.29 416.978 1439.06 420.821L1440 873.827V1447.55V1579.95V1813.85C1298.83 2208.18 1183.9 2367.67 953.668 2595H788.679H644.794L415.536 2502.32L177.646 2339.03L-66 2069.82Z" fill="url(#paint0_linear_85_103)" fill-opacity="0.5"/>
<path d="M1439.04 410.434V0C950.902 1141.04 609.105 1578.69 -66 2069.82L177.646 2339.03M1439.04 410.434C1452.42 582.739 734.116 1974.44 177.646 2339.03M1439.04 410.434L1440 873.827M177.646 2339.03L415.536 2502.32M1440 873.827C1191.43 1570.68 932.102 1924.57 415.536 2502.32M1440 873.827V1447.55M415.536 2502.32L644.794 2595M644.794 2595C1015.64 2232.53 1194.17 1984.44 1440 1447.55M644.794 2595H788.679M1440 1447.55V1579.95M788.679 2595C1125.81 2256.28 1292.18 2048.53 1440 1579.95M788.679 2595H953.668C1183.9 2367.67 1298.83 2208.18 1440 1813.85V1579.95" stroke="white" stroke-opacity="0.1" stroke-width="2"/>
</g>
<g filter="url(#filter1_f_85_103)">
<path d="M437.855 -2.16152C975.36 391.868 909.045 1414.47 1404.91 2114.37L1256.24 2114.11L1176.14 2113.96L1017.21 2113.68L884.566 2113.44L722.441 2113.15C567.04 1357.91 403.145 862.897 -31.2198 -3L62.3389 -2.83276L141.8 -2.69073L207.803 -2.57274L279.574 -2.44445L437.855 -2.16152Z" fill="url(#paint1_linear_85_103)" fill-opacity="0.5"/>
<path d="M1256.24 2114.11L1404.91 2114.37C909.045 1414.47 975.36 391.868 437.855 -2.16152L279.574 -2.44445M1256.24 2114.11C774.174 1199.79 918.627 465.304 279.574 -2.44445M1256.24 2114.11L1176.14 2113.96M279.574 -2.44445L207.803 -2.57274M1176.14 2113.96C761.313 1436.56 911.101 866.402 207.803 -2.57274M1176.14 2113.96L1017.21 2113.68M207.803 -2.57274L141.8 -2.69073M1017.21 2113.68C700.81 1175.44 538.207 713.493 141.8 -2.69073M1017.21 2113.68L884.566 2113.44M141.8 -2.69073L62.3389 -2.83276M884.566 2113.44C739.665 1439.9 525.179 963.79 62.3389 -2.83276M884.566 2113.44L722.441 2113.15C567.04 1357.91 403.145 862.897 -31.2198 -3L62.3389 -2.83276" stroke="white" stroke-opacity="0.1"/>
</g>
<defs>
<filter id="filter0_f_85_103" x="-70.4882" y="-3.39331" width="1514.49" height="2602.39" filterUnits="userSpaceOnUse" color-interpolation-filters="sRGB">
<feFlood flood-opacity="0" result="BackgroundImageFix"/>
<feBlend mode="normal" in="SourceGraphic" in2="BackgroundImageFix" result="shape"/>
<feGaussianBlur stdDeviation="1.5" result="effect1_foregroundBlur_85_103"/>
</filter>
<filter id="filter1_f_85_103" x="-40.0307" y="-11.5015" width="1453.91" height="2134.37" filterUnits="userSpaceOnUse" color-interpolation-filters="sRGB">
<feFlood flood-opacity="0" result="BackgroundImageFix"/>
<feBlend mode="normal" in="SourceGraphic" in2="BackgroundImageFix" result="shape"/>
<feGaussianBlur stdDeviation="4" result="effect1_foregroundBlur_85_103"/>
</filter>
<linearGradient id="paint0_linear_85_103" x1="545.033" y1="2515.56" x2="1541" y2="2440.85" gradientUnits="userSpaceOnUse">
<stop offset="0.0849912" stop-color="#40800B"/>
<stop offset="0.520974" stop-color="#021B00"/>
<stop offset="1" stop-color="#001B05" stop-opacity="0"/>
</linearGradient>
<linearGradient id="paint1_linear_85_103" x1="80.9225" y1="-2.7996" x2="1414.03" y2="253.567" gradientUnits="userSpaceOnUse">
<stop stop-color="#9EB711"/>
<stop offset="0.673278" stop-color="#05441A" stop-opacity="0.5"/>
<stop offset="1" stop-color="#013C01" stop-opacity="0"/>
</linearGradient>
</defs>
</svg>
