<svg width="211" height="40" viewBox="0 0 211 40" fill="none" xmlns="http://www.w3.org/2000/svg">
<path d="M14 20C14 8.95431 23.2793 3.8147e-06 34.726 3.8147e-06V40C23.2793 40 14 31.0457 14 20Z" fill="#00C853"/>
<path d="M59.7146 30H52.4958V9.63636H59.7742C61.8225 9.63636 63.5858 10.044 65.064 10.8594C66.5422 11.6681 67.6791 12.8314 68.4745 14.3494C69.2766 15.8674 69.6777 17.6837 69.6777 19.7983C69.6777 21.9195 69.2766 23.7424 68.4745 25.267C67.6791 26.7917 66.5356 27.9616 65.0441 28.777C63.5593 29.5923 61.7828 30 59.7146 30ZM56.8012 26.3111H59.5356C60.8083 26.3111 61.8789 26.0857 62.7473 25.6349C63.6223 25.1776 64.2785 24.4716 64.716 23.517C65.1601 22.5559 65.3822 21.3163 65.3822 19.7983C65.3822 18.2936 65.1601 17.0639 64.716 16.1094C64.2785 15.1548 63.6256 14.4522 62.7572 14.0014C61.8888 13.5507 60.8183 13.3253 59.5456 13.3253H56.8012V26.3111ZM79.7476 30.2983C78.1766 30.2983 76.8243 29.9801 75.6908 29.3438C74.5639 28.7008 73.6955 27.7926 73.0857 26.6193C72.4758 25.4394 72.1709 24.044 72.1709 22.4332C72.1709 20.8622 72.4758 19.4834 73.0857 18.2969C73.6955 17.1103 74.554 16.1856 75.661 15.5227C76.7746 14.8598 78.0805 14.5284 79.5786 14.5284C80.5862 14.5284 81.5241 14.6908 82.3925 15.0156C83.2675 15.3338 84.0298 15.8144 84.6794 16.4574C85.3357 17.1004 85.8461 17.9091 86.2107 18.8835C86.5753 19.8513 86.7576 20.9848 86.7576 22.2841V23.4474H73.8613V20.8224H82.7703C82.7703 20.2126 82.6378 19.6723 82.3726 19.2017C82.1075 18.7311 81.7396 18.3632 81.2689 18.098C80.8049 17.8262 80.2647 17.6903 79.6482 17.6903C79.0052 17.6903 78.4351 17.8395 77.938 18.1378C77.4474 18.4295 77.063 18.8239 76.7845 19.321C76.5061 19.8116 76.3636 20.3584 76.357 20.9616V23.4574C76.357 24.2131 76.4962 24.866 76.7746 25.4162C77.0596 25.9664 77.4607 26.3906 77.9777 26.6889C78.4948 26.9872 79.1079 27.1364 79.8172 27.1364C80.2879 27.1364 80.7187 27.0701 81.1098 26.9375C81.5009 26.8049 81.8357 26.6061 82.1141 26.3409C82.3925 26.0758 82.6046 25.7509 82.7505 25.3665L86.6681 25.625C86.4692 26.5663 86.0615 27.3883 85.4451 28.0909C84.8352 28.7869 84.0464 29.3305 83.0786 29.7216C82.1174 30.1061 81.0071 30.2983 79.7476 30.2983ZM96.482 30.2983C94.911 30.2983 93.5587 29.9801 92.4252 29.3438C91.2983 28.7008 90.4299 27.7926 89.8201 26.6193C89.2102 25.4394 88.9053 24.044 88.9053 22.4332C88.9053 20.8622 89.2102 19.4834 89.8201 18.2969C90.4299 17.1103 91.2883 16.1856 92.3953 15.5227C93.509 14.8598 94.8148 14.5284 96.313 14.5284C97.3205 14.5284 98.2585 14.6908 99.1269 15.0156C100.002 15.3338 100.764 15.8144 101.414 16.4574C102.07 17.1004 102.58 17.9091 102.945 18.8835C103.31 19.8513 103.492 20.9848 103.492 22.2841V23.4474H90.5956V20.8224H99.5047C99.5047 20.2126 99.3721 19.6723 99.107 19.2017C98.8418 18.7311 98.4739 18.3632 98.0033 18.098C97.5393 17.8262 96.999 17.6903 96.3826 17.6903C95.7396 17.6903 95.1695 17.8395 94.6723 18.1378C94.1818 18.4295 93.7973 18.8239 93.5189 19.321C93.2405 19.8116 93.098 20.3584 93.0914 20.9616V23.4574C93.0914 24.2131 93.2306 24.866 93.509 25.4162C93.794 25.9664 94.1951 26.3906 94.7121 26.6889C95.2291 26.9872 95.8423 27.1364 96.5516 27.1364C97.0222 27.1364 97.4531 27.0701 97.8442 26.9375C98.2353 26.8049 98.5701 26.6061 98.8485 26.3409C99.1269 26.0758 99.339 25.7509 99.4848 25.3665L103.402 25.625C103.204 26.5663 102.796 27.3883 102.179 28.0909C101.57 28.7869 100.781 29.3305 99.813 29.7216C98.8518 30.1061 97.7415 30.2983 96.482 30.2983ZM106.256 35.7273V14.7273H110.432V17.2926H110.621C110.807 16.8816 111.075 16.464 111.427 16.0398C111.785 15.6089 112.249 15.2509 112.819 14.9659C113.395 14.6742 114.111 14.5284 114.966 14.5284C116.08 14.5284 117.107 14.8201 118.049 15.4034C118.99 15.9801 119.742 16.8518 120.306 18.0185C120.869 19.1785 121.151 20.6335 121.151 22.3835C121.151 24.0871 120.876 25.5256 120.326 26.6989C119.782 27.8655 119.04 28.7505 118.098 29.3537C117.164 29.9503 116.116 30.2486 114.956 30.2486C114.134 30.2486 113.435 30.1127 112.858 29.8409C112.288 29.5691 111.821 29.2277 111.456 28.8168C111.092 28.3991 110.813 27.9782 110.621 27.554H110.492V35.7273H106.256ZM110.402 22.3636C110.402 23.2718 110.528 24.0639 110.78 24.7401C111.032 25.4162 111.397 25.9432 111.874 26.321C112.351 26.6922 112.931 26.8778 113.614 26.8778C114.303 26.8778 114.887 26.6889 115.364 26.3111C115.841 25.9266 116.203 25.3963 116.448 24.7202C116.7 24.0374 116.826 23.2519 116.826 22.3636C116.826 21.482 116.703 20.7064 116.458 20.0369C116.213 19.3674 115.851 18.8437 115.374 18.4659C114.897 18.0881 114.31 17.8991 113.614 17.8991C112.925 17.8991 112.341 18.0814 111.864 18.446C111.393 18.8106 111.032 19.3277 110.78 19.9972C110.528 20.6667 110.402 21.4555 110.402 22.3636ZM144.038 16.2188C143.899 15.7348 143.703 15.3073 143.451 14.9361C143.199 14.5582 142.891 14.2401 142.526 13.9815C142.168 13.7164 141.757 13.5142 141.293 13.375C140.836 13.2358 140.329 13.1662 139.772 13.1662C138.731 13.1662 137.817 13.4247 137.028 13.9418C136.246 14.4588 135.636 15.2112 135.198 16.1989C134.761 17.1799 134.542 18.3797 134.542 19.7983C134.542 21.2169 134.757 22.4233 135.188 23.4176C135.619 24.4119 136.229 25.1709 137.018 25.6946C137.807 26.2116 138.738 26.4702 139.812 26.4702C140.786 26.4702 141.618 26.2978 142.308 25.9531C143.004 25.6018 143.534 25.108 143.899 24.4716C144.27 23.8352 144.455 23.0829 144.455 22.2145L145.33 22.3438H140.08V19.1023H148.602V21.6676C148.602 23.4574 148.224 24.9953 147.468 26.2812C146.712 27.5606 145.672 28.5483 144.346 29.2443C143.02 29.9337 141.502 30.2784 139.792 30.2784C137.883 30.2784 136.206 29.8575 134.761 29.0156C133.316 28.1671 132.189 26.964 131.38 25.4062C130.578 23.8419 130.177 21.9858 130.177 19.8381C130.177 18.1875 130.416 16.7159 130.893 15.4233C131.377 14.1241 132.053 13.0237 132.921 12.1222C133.79 11.2206 134.801 10.5346 135.954 10.0639C137.107 9.59328 138.357 9.35795 139.703 9.35795C140.856 9.35795 141.93 9.52699 142.924 9.86506C143.918 10.1965 144.8 10.6671 145.569 11.277C146.345 11.8868 146.978 12.6127 147.468 13.4545C147.959 14.2898 148.274 15.2112 148.413 16.2188H144.038ZM161.55 23.4972V14.7273H165.786V30H161.719V27.2259H161.56C161.215 28.1207 160.642 28.84 159.84 29.3835C159.044 29.9271 158.073 30.1989 156.927 30.1989C155.906 30.1989 155.008 29.9669 154.232 29.5028C153.456 29.0388 152.85 28.3793 152.412 27.5241C151.982 26.669 151.763 25.6449 151.756 24.4517V14.7273H155.992V23.696C155.999 24.5975 156.241 25.3101 156.718 25.8338C157.195 26.3575 157.835 26.6193 158.637 26.6193C159.147 26.6193 159.625 26.5033 160.069 26.2713C160.513 26.0327 160.871 25.6813 161.143 25.2173C161.421 24.7533 161.557 24.1799 161.55 23.4972ZM173.529 30.2884C172.555 30.2884 171.686 30.1193 170.924 29.7812C170.162 29.4366 169.559 28.9295 169.114 28.2599C168.677 27.5838 168.458 26.742 168.458 25.7344C168.458 24.8859 168.614 24.1733 168.926 23.5966C169.237 23.0199 169.661 22.5559 170.198 22.2045C170.735 21.8532 171.345 21.5881 172.028 21.4091C172.717 21.2301 173.44 21.1042 174.195 21.0312C175.084 20.9384 175.8 20.8523 176.343 20.7727C176.887 20.6866 177.281 20.5606 177.526 20.3949C177.772 20.2292 177.894 19.9839 177.894 19.6591V19.5994C177.894 18.9697 177.695 18.4825 177.298 18.1378C176.907 17.7931 176.35 17.6207 175.627 17.6207C174.865 17.6207 174.258 17.7898 173.808 18.1278C173.357 18.4593 173.059 18.8769 172.913 19.3807L168.995 19.0625C169.194 18.1345 169.585 17.3324 170.168 16.6562C170.752 15.9735 171.504 15.4498 172.426 15.0852C173.354 14.714 174.427 14.5284 175.647 14.5284C176.496 14.5284 177.308 14.6278 178.083 14.8267C178.865 15.0256 179.558 15.3338 180.161 15.7514C180.771 16.169 181.252 16.706 181.603 17.3622C181.954 18.0118 182.13 18.7907 182.13 19.6989V30H178.113V27.8821H177.994C177.748 28.3594 177.42 28.7803 177.009 29.1449C176.598 29.5028 176.105 29.7846 175.528 29.9901C174.951 30.1889 174.285 30.2884 173.529 30.2884ZM174.742 27.3651C175.365 27.3651 175.916 27.2424 176.393 26.9972C176.87 26.7453 177.245 26.4072 177.516 25.983C177.788 25.5587 177.924 25.0781 177.924 24.5412V22.9205C177.792 23.0066 177.609 23.0862 177.377 23.1591C177.152 23.2254 176.897 23.2884 176.612 23.348C176.327 23.401 176.042 23.4508 175.756 23.4972C175.471 23.5369 175.213 23.5734 174.981 23.6065C174.484 23.6795 174.05 23.7955 173.678 23.9545C173.307 24.1136 173.019 24.3291 172.813 24.6009C172.608 24.866 172.505 25.1974 172.505 25.5952C172.505 26.1719 172.714 26.6127 173.131 26.9176C173.556 27.2159 174.093 27.3651 174.742 27.3651ZM185.416 30V14.7273H189.523V17.392H189.682C189.96 16.4441 190.428 15.7282 191.084 15.2443C191.74 14.7538 192.496 14.5085 193.351 14.5085C193.563 14.5085 193.792 14.5218 194.037 14.5483C194.282 14.5748 194.498 14.6113 194.683 14.6577V18.4162C194.484 18.3565 194.209 18.3035 193.858 18.2571C193.507 18.2107 193.185 18.1875 192.894 18.1875C192.27 18.1875 191.714 18.3234 191.223 18.5952C190.739 18.8603 190.355 19.2315 190.07 19.7088C189.791 20.1861 189.652 20.7363 189.652 21.3594V30H185.416ZM201.79 30.2486C200.63 30.2486 199.58 29.9503 198.638 29.3537C197.704 28.7505 196.961 27.8655 196.411 26.6989C195.867 25.5256 195.596 24.0871 195.596 22.3835C195.596 20.6335 195.877 19.1785 196.441 18.0185C197.004 16.8518 197.753 15.9801 198.688 15.4034C199.629 14.8201 200.66 14.5284 201.78 14.5284C202.635 14.5284 203.348 14.6742 203.918 14.9659C204.495 15.2509 204.959 15.6089 205.31 16.0398C205.668 16.464 205.94 16.8816 206.125 17.2926H206.255V9.63636H210.481V30H206.304V27.554H206.125C205.927 27.9782 205.645 28.3991 205.28 28.8168C204.922 29.2277 204.455 29.5691 203.878 29.8409C203.308 30.1127 202.612 30.2486 201.79 30.2486ZM203.133 26.8778C203.815 26.8778 204.392 26.6922 204.863 26.321C205.34 25.9432 205.705 25.4162 205.956 24.7401C206.215 24.0639 206.344 23.2718 206.344 22.3636C206.344 21.4555 206.218 20.6667 205.966 19.9972C205.714 19.3277 205.35 18.8106 204.873 18.446C204.395 18.0814 203.815 17.8991 203.133 17.8991C202.437 17.8991 201.85 18.0881 201.373 18.4659C200.895 18.8437 200.534 19.3674 200.289 20.0369C200.044 20.7064 199.921 21.482 199.921 22.3636C199.921 23.2519 200.044 24.0374 200.289 24.7202C200.541 25.3963 200.902 25.9266 201.373 26.3111C201.85 26.6889 202.437 26.8778 203.133 26.8778Z" fill="white"/>
<rect width="14" height="40" fill="#00C853"/>
</svg>
