<svg width="492" height="486" viewBox="0 0 492 486" fill="none" xmlns="http://www.w3.org/2000/svg">
<g clip-path="url(#clip0_53_112)">
<path d="M231.818 429.82L180.792 418.69L180.325 420.836L231.35 431.965L231.818 429.82Z" fill="#A0FFD5"/>
<g filter="url(#filter0_dii_53_112)">
<path d="M353.494 288.478C360.095 259.338 354.63 228.72 338.299 203.335C321.968 177.95 296.103 159.871 266.375 153.06C236.5 146.87 205.445 152.531 180.01 168.803C154.575 185.074 136.832 210.631 130.668 239.876C126.115 260.336 127.393 281.68 134.363 301.572C141.333 321.465 153.727 339.139 170.188 352.663C170.048 353.307 169.884 354.058 169.72 354.808L157.437 411.124C156.348 415.974 157.255 421.066 159.962 425.296C162.668 429.525 166.956 432.551 171.894 433.717L178.026 435.055L229.052 446.184L235.074 447.498C240.049 448.494 245.207 447.528 249.429 444.81C253.651 442.092 256.597 437.84 257.627 432.977L269.816 377.09C270.031 376.389 270.188 375.672 270.284 374.945C290.99 369.524 309.718 358.58 324.402 343.322C339.085 328.063 349.153 309.084 353.494 288.478ZM179.97 232.088C179.547 232.888 178.871 233.529 178.042 233.915C177.213 234.302 176.276 234.413 175.373 234.232L174.278 233.993C173.67 233.825 173.104 233.533 172.618 233.136C172.131 232.739 171.734 232.247 171.453 231.692C171.212 231.12 171.096 230.507 171.111 229.891C171.127 229.275 171.275 228.67 171.545 228.116C178.46 214.189 189.273 202.506 202.731 194.423C216.189 186.339 231.739 182.186 247.577 182.446C248.189 182.46 248.791 182.61 249.338 182.885C249.884 183.16 250.361 183.554 250.731 184.035C251.101 184.517 251.356 185.074 251.475 185.664C251.594 186.254 251.575 186.862 251.419 187.442L251.209 188.408C251.011 189.323 250.505 190.143 249.772 190.737C249.04 191.332 248.122 191.665 247.168 191.684C233.176 191.509 219.451 195.206 207.566 202.353C195.681 209.499 186.117 219.804 179.97 232.088ZM250.041 433.57C249.841 434.221 249.39 434.769 248.783 435.098C248.177 435.426 247.462 435.511 246.789 435.332L166.528 417.826C165.842 417.708 165.227 417.334 164.813 416.783C164.398 416.231 164.216 415.545 164.305 414.869L165.264 410.471C165.465 409.82 165.916 409.272 166.523 408.943C167.129 408.614 167.844 408.53 168.517 408.708L248.778 426.215C249.464 426.333 250.078 426.707 250.493 427.258C250.907 427.81 251.089 428.496 251.001 429.172L250.041 433.57ZM254.721 412.116C254.52 412.768 254.069 413.316 253.462 413.644C252.856 413.973 252.141 414.057 251.468 413.879L171.207 396.373C170.521 396.255 169.907 395.881 169.492 395.329C169.078 394.778 168.896 394.092 168.985 393.416L169.897 389.232C169.995 388.914 170.157 388.618 170.373 388.362C170.589 388.107 170.854 387.896 171.154 387.742C171.455 387.588 171.783 387.494 172.122 387.466C172.46 387.437 172.801 387.475 173.126 387.577L253.387 405.083C253.724 405.126 254.05 405.234 254.346 405.4C254.642 405.567 254.902 405.789 255.111 406.054C255.319 406.319 255.473 406.621 255.563 406.944C255.652 407.266 255.676 407.602 255.633 407.933L254.721 412.116ZM259.4 390.663C259.199 391.314 258.748 391.862 258.142 392.191C257.535 392.52 256.821 392.604 256.148 392.426L175.887 374.919C175.201 374.801 174.586 374.427 174.171 373.876C173.757 373.324 173.575 372.638 173.664 371.962L174.576 367.779C174.777 367.127 175.228 366.58 175.835 366.251C176.441 365.922 177.156 365.838 177.828 366.016L258.09 383.522C258.776 383.64 259.39 384.015 259.805 384.566C260.219 385.117 260.401 385.803 260.312 386.479L259.4 390.663Z" fill="#A0FFD5"/>
</g>
<g filter="url(#filter1_dii_53_112)">
<path d="M279.976 50.7355L266.265 113.594C265.882 114.707 265.743 115.888 265.858 117.061C265.973 118.234 266.34 119.372 266.933 120.4C267.527 121.429 268.334 122.324 269.302 123.028C270.27 123.731 271.377 124.227 272.55 124.483C273.724 124.739 274.937 124.749 276.11 124.512C277.283 124.276 278.39 123.798 279.358 123.11C280.325 122.423 281.132 121.54 281.725 120.522C282.319 119.503 282.685 118.372 282.799 117.2L296.51 54.3419C296.893 53.2294 297.032 52.0479 296.917 50.8749C296.801 49.7019 296.435 48.5639 295.842 47.5356C295.248 46.5074 294.441 45.612 293.473 44.9084C292.505 44.2047 291.398 43.7087 290.224 43.4528C289.051 43.1969 287.838 43.1869 286.665 43.4235C285.492 43.6601 284.385 44.138 283.417 44.8257C282.449 45.5134 281.642 46.3955 281.049 47.414C280.456 48.4325 280.09 49.5644 279.976 50.7355Z" fill="#57C091" fill-opacity="0.3" shape-rendering="crispEdges"/>
</g>
<g filter="url(#filter2_dii_53_112)">
<path d="M71.0339 126.747C70.1463 126.07 69.1297 125.576 68.0454 125.293C66.9612 125.011 65.8317 124.947 64.7253 125.104C63.6189 125.262 62.5585 125.639 61.608 126.211C60.6575 126.783 59.8367 127.54 59.1952 128.435C57.8771 130.205 57.329 132.421 57.6701 134.599C58.0112 136.778 59.2138 138.744 61.0164 140.069L114.138 178.4C114.957 179.374 115.987 180.156 117.152 180.688C118.317 181.22 119.588 181.487 120.868 181.471C122.149 181.455 123.407 181.155 124.548 180.594C125.689 180.033 126.685 179.225 127.46 178.231C128.235 177.237 128.77 176.082 129.025 174.852C129.28 173.622 129.248 172.349 128.932 171.128C128.616 169.908 128.024 168.77 127.199 167.801C126.375 166.832 125.34 166.056 124.172 165.531L71.0339 126.747Z" fill="#57C091" fill-opacity="0.3" shape-rendering="crispEdges"/>
</g>
<g filter="url(#filter3_dii_53_112)">
<path d="M453.616 210.194L388.826 223.256C386.811 223.869 385.108 225.199 384.048 226.985C382.988 228.772 382.646 230.887 383.091 232.92C383.535 234.953 384.733 236.756 386.452 237.98C388.17 239.204 390.286 239.76 392.386 239.539L456.645 226.811C457.755 226.625 458.815 226.226 459.764 225.637C460.714 225.048 461.534 224.28 462.178 223.377C462.823 222.474 463.278 221.454 463.519 220.375C463.76 219.296 463.782 218.179 463.583 217.087C463.384 215.996 462.969 214.953 462.36 214.016C461.752 213.079 460.962 212.267 460.037 211.627C459.111 210.987 458.068 210.531 456.966 210.285C455.865 210.039 454.726 210.008 453.616 210.194Z" fill="#57C091" fill-opacity="0.3" shape-rendering="crispEdges"/>
</g>
</g>
<defs>
<filter id="filter0_dii_53_112" x="118.993" y="141.613" width="252.234" height="322.268" filterUnits="userSpaceOnUse" color-interpolation-filters="sRGB">
<feFlood flood-opacity="0" result="BackgroundImageFix"/>
<feColorMatrix in="SourceAlpha" type="matrix" values="0 0 0 0 0 0 0 0 0 0 0 0 0 0 0 0 0 0 127 0" result="hardAlpha"/>
<feOffset dx="6" dy="6"/>
<feGaussianBlur stdDeviation="4"/>
<feComposite in2="hardAlpha" operator="out"/>
<feColorMatrix type="matrix" values="0 0 0 0 0.0235294 0 0 0 0 0.478431 0 0 0 0 0.27451 0 0 0 0.3 0"/>
<feBlend mode="normal" in2="BackgroundImageFix" result="effect1_dropShadow_53_112"/>
<feBlend mode="normal" in="SourceGraphic" in2="effect1_dropShadow_53_112" result="shape"/>
<feColorMatrix in="SourceAlpha" type="matrix" values="0 0 0 0 0 0 0 0 0 0 0 0 0 0 0 0 0 0 127 0" result="hardAlpha"/>
<feOffset dx="-10" dy="-11"/>
<feGaussianBlur stdDeviation="4.5"/>
<feComposite in2="hardAlpha" operator="arithmetic" k2="-1" k3="1"/>
<feColorMatrix type="matrix" values="0 0 0 0 0.0235294 0 0 0 0 0.478431 0 0 0 0 0.27451 0 0 0 0.5 0"/>
<feBlend mode="normal" in2="shape" result="effect2_innerShadow_53_112"/>
<feColorMatrix in="SourceAlpha" type="matrix" values="0 0 0 0 0 0 0 0 0 0 0 0 0 0 0 0 0 0 127 0" result="hardAlpha"/>
<feOffset dx="15" dy="16"/>
<feGaussianBlur stdDeviation="9.5"/>
<feComposite in2="hardAlpha" operator="arithmetic" k2="-1" k3="1"/>
<feColorMatrix type="matrix" values="0 0 0 0 0.0235294 0 0 0 0 0.478431 0 0 0 0 0.27451 0 0 0 0.4 0"/>
<feBlend mode="normal" in2="effect2_innerShadow_53_112" result="effect3_innerShadow_53_112"/>
</filter>
<filter id="filter1_dii_53_112" x="263.819" y="35.2532" width="47.137" height="103.43" filterUnits="userSpaceOnUse" color-interpolation-filters="sRGB">
<feFlood flood-opacity="0" result="BackgroundImageFix"/>
<feColorMatrix in="SourceAlpha" type="matrix" values="0 0 0 0 0 0 0 0 0 0 0 0 0 0 0 0 0 0 127 0" result="hardAlpha"/>
<feOffset dx="6" dy="6"/>
<feGaussianBlur stdDeviation="4"/>
<feComposite in2="hardAlpha" operator="out"/>
<feColorMatrix type="matrix" values="0 0 0 0 0.298039 0 0 0 0 0.631373 0 0 0 0 0.482353 0 0 0 0.4 0"/>
<feBlend mode="normal" in2="BackgroundImageFix" result="effect1_dropShadow_53_112"/>
<feBlend mode="normal" in="SourceGraphic" in2="effect1_dropShadow_53_112" result="shape"/>
<feColorMatrix in="SourceAlpha" type="matrix" values="0 0 0 0 0 0 0 0 0 0 0 0 0 0 0 0 0 0 127 0" result="hardAlpha"/>
<feOffset dx="-1" dy="-13"/>
<feGaussianBlur stdDeviation="4"/>
<feComposite in2="hardAlpha" operator="arithmetic" k2="-1" k3="1"/>
<feColorMatrix type="matrix" values="0 0 0 0 0.294118 0 0 0 0 0.647059 0 0 0 0 0.490196 0 0 0 1 0"/>
<feBlend mode="normal" in2="shape" result="effect2_innerShadow_53_112"/>
<feColorMatrix in="SourceAlpha" type="matrix" values="0 0 0 0 0 0 0 0 0 0 0 0 0 0 0 0 0 0 127 0" result="hardAlpha"/>
<feOffset dx="-2" dy="5"/>
<feGaussianBlur stdDeviation="6.5"/>
<feComposite in2="hardAlpha" operator="arithmetic" k2="-1" k3="1"/>
<feColorMatrix type="matrix" values="0 0 0 0 0 0 0 0 0 0.316667 0 0 0 0 0.174921 0 0 0 1 0"/>
<feBlend mode="normal" in2="effect2_innerShadow_53_112" result="effect3_innerShadow_53_112"/>
</filter>
<filter id="filter2_dii_53_112" x="55.5712" y="117.02" width="87.6239" height="78.4517" filterUnits="userSpaceOnUse" color-interpolation-filters="sRGB">
<feFlood flood-opacity="0" result="BackgroundImageFix"/>
<feColorMatrix in="SourceAlpha" type="matrix" values="0 0 0 0 0 0 0 0 0 0 0 0 0 0 0 0 0 0 127 0" result="hardAlpha"/>
<feOffset dx="6" dy="6"/>
<feGaussianBlur stdDeviation="4"/>
<feComposite in2="hardAlpha" operator="out"/>
<feColorMatrix type="matrix" values="0 0 0 0 0.298039 0 0 0 0 0.631373 0 0 0 0 0.482353 0 0 0 0.4 0"/>
<feBlend mode="normal" in2="BackgroundImageFix" result="effect1_dropShadow_53_112"/>
<feBlend mode="normal" in="SourceGraphic" in2="effect1_dropShadow_53_112" result="shape"/>
<feColorMatrix in="SourceAlpha" type="matrix" values="0 0 0 0 0 0 0 0 0 0 0 0 0 0 0 0 0 0 127 0" result="hardAlpha"/>
<feOffset dx="-1" dy="-13"/>
<feGaussianBlur stdDeviation="4"/>
<feComposite in2="hardAlpha" operator="arithmetic" k2="-1" k3="1"/>
<feColorMatrix type="matrix" values="0 0 0 0 0.294118 0 0 0 0 0.647059 0 0 0 0 0.490196 0 0 0 1 0"/>
<feBlend mode="normal" in2="shape" result="effect2_innerShadow_53_112"/>
<feColorMatrix in="SourceAlpha" type="matrix" values="0 0 0 0 0 0 0 0 0 0 0 0 0 0 0 0 0 0 127 0" result="hardAlpha"/>
<feOffset dx="-2" dy="5"/>
<feGaussianBlur stdDeviation="6.5"/>
<feComposite in2="hardAlpha" operator="arithmetic" k2="-1" k3="1"/>
<feColorMatrix type="matrix" values="0 0 0 0 0 0 0 0 0 0.316667 0 0 0 0 0.174921 0 0 0 1 0"/>
<feBlend mode="normal" in2="effect2_innerShadow_53_112" result="effect3_innerShadow_53_112"/>
</filter>
<filter id="filter3_dii_53_112" x="380.901" y="202.074" width="96.8169" height="51.5125" filterUnits="userSpaceOnUse" color-interpolation-filters="sRGB">
<feFlood flood-opacity="0" result="BackgroundImageFix"/>
<feColorMatrix in="SourceAlpha" type="matrix" values="0 0 0 0 0 0 0 0 0 0 0 0 0 0 0 0 0 0 127 0" result="hardAlpha"/>
<feOffset dx="6" dy="6"/>
<feGaussianBlur stdDeviation="4"/>
<feComposite in2="hardAlpha" operator="out"/>
<feColorMatrix type="matrix" values="0 0 0 0 0.298039 0 0 0 0 0.631373 0 0 0 0 0.482353 0 0 0 0.4 0"/>
<feBlend mode="normal" in2="BackgroundImageFix" result="effect1_dropShadow_53_112"/>
<feBlend mode="normal" in="SourceGraphic" in2="effect1_dropShadow_53_112" result="shape"/>
<feColorMatrix in="SourceAlpha" type="matrix" values="0 0 0 0 0 0 0 0 0 0 0 0 0 0 0 0 0 0 127 0" result="hardAlpha"/>
<feOffset dx="-1" dy="-13"/>
<feGaussianBlur stdDeviation="4"/>
<feComposite in2="hardAlpha" operator="arithmetic" k2="-1" k3="1"/>
<feColorMatrix type="matrix" values="0 0 0 0 0.294118 0 0 0 0 0.647059 0 0 0 0 0.490196 0 0 0 1 0"/>
<feBlend mode="normal" in2="shape" result="effect2_innerShadow_53_112"/>
<feColorMatrix in="SourceAlpha" type="matrix" values="0 0 0 0 0 0 0 0 0 0 0 0 0 0 0 0 0 0 127 0" result="hardAlpha"/>
<feOffset dx="-2" dy="5"/>
<feGaussianBlur stdDeviation="6.5"/>
<feComposite in2="hardAlpha" operator="arithmetic" k2="-1" k3="1"/>
<feColorMatrix type="matrix" values="0 0 0 0 0 0 0 0 0 0.316667 0 0 0 0 0.174921 0 0 0 1 0"/>
<feBlend mode="normal" in2="effect2_innerShadow_53_112" result="effect3_innerShadow_53_112"/>
</filter>
<clipPath id="clip0_53_112">
<rect width="415" height="406" fill="white" transform="translate(86.5206) rotate(12.3044)"/>
</clipPath>
</defs>
</svg>
